<mxfile host="app.diagrams.net" modified="2020-12-22T16:04:38.479Z" agent="5.0 (Windows NT 10.0; Win64; x64) AppleWebKit/537.36 (KHTML, like Gecko) Chrome/87.0.4280.88 Safari/537.36" etag="SMzTJ1vJMX9bUpaWOVjk" version="14.1.1" type="github">
  <diagram id="nZrhg_7fKbvnKr-Qw_U-" name="第 1 页">
    <mxGraphModel dx="1038" dy="1693" grid="1" gridSize="10" guides="1" tooltips="1" connect="1" arrows="1" fold="1" page="1" pageScale="1" pageWidth="827" pageHeight="1169" math="0" shadow="0">
      <root>
        <mxCell id="0" />
        <mxCell id="1" parent="0" />
        <mxCell id="reQx8_bOpBJxEehg2jfT-1" value="&lt;div style=&quot;font-size: 15px;&quot;&gt;`ifndef MY_MODEL__SV&lt;/div&gt;&lt;div style=&quot;font-size: 15px;&quot;&gt;`define MY_MODEL__SV&lt;/div&gt;&lt;div style=&quot;font-size: 15px;&quot;&gt;&lt;br style=&quot;font-size: 15px;&quot;&gt;&lt;/div&gt;&lt;div style=&quot;font-size: 15px;&quot;&gt;class my_model extends uvm_component;&lt;/div&gt;&lt;div style=&quot;font-size: 15px;&quot;&gt;&amp;nbsp; &amp;nbsp;&lt;/div&gt;&lt;div style=&quot;font-size: 15px;&quot;&gt;&amp;nbsp; &amp;nbsp;uvm_blocking_get_port #(my_transaction)&amp;nbsp; port;&lt;/div&gt;&lt;div style=&quot;font-size: 15px;&quot;&gt;&amp;nbsp; &amp;nbsp;uvm_analysis_port #(my_transaction)&amp;nbsp; ap;&lt;/div&gt;&lt;div style=&quot;font-size: 15px;&quot;&gt;&lt;br style=&quot;font-size: 15px;&quot;&gt;&lt;/div&gt;&lt;div style=&quot;font-size: 15px;&quot;&gt;&amp;nbsp; &amp;nbsp;extern function new(string name, uvm_component parent);&lt;/div&gt;&lt;div style=&quot;font-size: 15px;&quot;&gt;&amp;nbsp; &amp;nbsp;extern function void build_phase(uvm_phase phase);&lt;/div&gt;&lt;div style=&quot;font-size: 15px;&quot;&gt;&amp;nbsp; &amp;nbsp;extern virtual&amp;nbsp; task main_phase(uvm_phase phase);&lt;/div&gt;&lt;div style=&quot;font-size: 15px;&quot;&gt;&lt;br style=&quot;font-size: 15px;&quot;&gt;&lt;/div&gt;&lt;div style=&quot;font-size: 15px;&quot;&gt;&amp;nbsp; &amp;nbsp;`uvm_component_utils(my_model)&lt;/div&gt;&lt;div style=&quot;font-size: 15px;&quot;&gt;endclass&amp;nbsp;&lt;/div&gt;&lt;div style=&quot;font-size: 15px;&quot;&gt;&lt;br style=&quot;font-size: 15px;&quot;&gt;&lt;/div&gt;&lt;div style=&quot;font-size: 15px;&quot;&gt;function my_model::new(string name, uvm_component parent);&lt;/div&gt;&lt;div style=&quot;font-size: 15px;&quot;&gt;&amp;nbsp; &amp;nbsp;super.new(name, parent);&lt;/div&gt;&lt;div style=&quot;font-size: 15px;&quot;&gt;endfunction&amp;nbsp;&lt;/div&gt;&lt;div style=&quot;font-size: 15px;&quot;&gt;&lt;br style=&quot;font-size: 15px;&quot;&gt;&lt;/div&gt;&lt;div style=&quot;font-size: 15px;&quot;&gt;function void my_model::build_phase(uvm_phase phase);&lt;/div&gt;&lt;div style=&quot;font-size: 15px;&quot;&gt;&amp;nbsp; &amp;nbsp;super.build_phase(phase);&lt;/div&gt;&lt;div style=&quot;font-size: 15px;&quot;&gt;&amp;nbsp; &amp;nbsp;port = new(&quot;port&quot;, this);&lt;/div&gt;&lt;div style=&quot;font-size: 15px;&quot;&gt;&amp;nbsp; &amp;nbsp;ap = new(&quot;ap&quot;, this);&lt;/div&gt;&lt;div style=&quot;font-size: 15px;&quot;&gt;endfunction&lt;/div&gt;&lt;div style=&quot;font-size: 15px;&quot;&gt;&lt;br style=&quot;font-size: 15px;&quot;&gt;&lt;/div&gt;&lt;div style=&quot;font-size: 15px;&quot;&gt;task my_model::main_phase(uvm_phase phase);&lt;/div&gt;&lt;div style=&quot;font-size: 15px;&quot;&gt;&amp;nbsp; &amp;nbsp;my_transaction tr;&lt;/div&gt;&lt;div style=&quot;font-size: 15px;&quot;&gt;&amp;nbsp; &amp;nbsp;my_transaction new_tr;&lt;/div&gt;&lt;div style=&quot;font-size: 15px;&quot;&gt;&amp;nbsp; &amp;nbsp;super.main_phase(phase);&lt;/div&gt;&lt;div style=&quot;font-size: 15px;&quot;&gt;&amp;nbsp; &amp;nbsp;while(1) begin&lt;/div&gt;&lt;div style=&quot;font-size: 15px;&quot;&gt;&amp;nbsp; &amp;nbsp; &amp;nbsp; port.get(tr);&lt;/div&gt;&lt;div style=&quot;font-size: 15px;&quot;&gt;&amp;nbsp; &amp;nbsp; &amp;nbsp; new_tr = new(&quot;new_tr&quot;);&lt;/div&gt;&lt;div style=&quot;font-size: 15px;&quot;&gt;&amp;nbsp; &amp;nbsp; &amp;nbsp; new_tr.copy(tr);&lt;/div&gt;&lt;div style=&quot;font-size: 15px;&quot;&gt;&amp;nbsp; &amp;nbsp; &amp;nbsp; `uvm_info(&quot;my_model&quot;, &quot;get one transaction, copy and print it:&quot;, UVM_LOW)&lt;/div&gt;&lt;div style=&quot;font-size: 15px;&quot;&gt;&amp;nbsp; &amp;nbsp; &amp;nbsp; new_tr.print();&lt;/div&gt;&lt;div style=&quot;font-size: 15px;&quot;&gt;&amp;nbsp; &amp;nbsp; &amp;nbsp; ap.write(new_tr);&lt;/div&gt;&lt;div style=&quot;font-size: 15px;&quot;&gt;&amp;nbsp; &amp;nbsp;end&lt;/div&gt;&lt;div style=&quot;font-size: 15px;&quot;&gt;endtask&lt;/div&gt;&lt;div style=&quot;font-size: 15px;&quot;&gt;`endif&lt;/div&gt;" style="rounded=0;whiteSpace=wrap;html=1;align=left;fontSize=15;" vertex="1" parent="1">
          <mxGeometry x="110" y="-80" width="590" height="710" as="geometry" />
        </mxCell>
      </root>
    </mxGraphModel>
  </diagram>
</mxfile>
